<?xml version="1.0" standalone="no"?><!DOCTYPE svg PUBLIC "-//W3C//DTD SVG 1.1//EN" "http://www.w3.org/Graphics/SVG/1.1/DTD/svg11.dtd"><svg t="1510304864158" class="icon" style="" viewBox="0 0 1024 1024" version="1.1" xmlns="http://www.w3.org/2000/svg" p-id="1883" xmlns:xlink="http://www.w3.org/1999/xlink" width="100" height="100"><defs><style type="text/css"></style></defs><path d="M623.044584 944.370405 623.044584 826.743404c130.046868-46.188972 223.623104-169.001065 223.623104-314.771033 0-145.769968-93.576235-268.556479-223.623104-314.745451L623.044584 79.601966c192.83182 49.682539 335.434655 224.140896 335.434655 432.370405C958.479239 720.197786 815.877427 894.659213 623.044584 944.370405zM231.704664 735.511563c-92.593861 0-167.716816-75.067696-167.716816-167.662581L63.987848 456.092689c0-92.565209 75.122955-167.633928 167.716816-167.633928l55.906288 0L567.140343 64.944128 567.140343 959.055872 287.610952 735.511563 231.704664 735.511563zM455.327768 735.511563 455.327768 567.848982 455.327768 456.092689 455.327768 288.457738 343.516216 400.215054 231.704664 400.215054c-30.845519 0-55.851029 25.031093-55.851029 55.876612l0 111.756293c0 30.874171 25.006534 55.879682 55.851029 55.879682l111.811552 0L455.327768 735.511563zM790.762423 511.972371c0 104.030331-71.40733 190.701297-167.716816 215.623919L623.045607 608.223528c33.3035-19.355837 55.906288-54.979172 55.906288-96.251158 0-41.24845-22.602787-76.899414-55.906288-96.251158L623.045607 296.375058C719.355093 321.296657 790.762423 407.939993 790.762423 511.972371z" p-id="1884" fill="#ffffff"></path></svg>